#define plus_width 14
#define plus_height 14
static char plus_bits[] = {
   0x00, 0x00, 0xfe, 0x3f, 0x02, 0x20, 0x02, 0x20, 0x82, 0x20, 0x82, 0x20,
   0x82, 0x20, 0xf2, 0x27, 0x82, 0x20, 0x82, 0x20, 0x82, 0x20, 0x02, 0x20,
   0x02, 0x20, 0xfe, 0x3f};
